<svg width="20" height="20" viewBox="0 0 20 20" fill="none" xmlns="http://www.w3.org/2000/svg">
<g clip-path="url(#clip0_84_187)">
<path d="M0.00889133 14.3331C-0.0180618 14.4861 0.016821 14.6436 0.105962 14.7709C0.195063 14.8982 0.331157 14.9849 0.484204 15.0118L3.08487 15.4704L1.44663 6.17929L0.00889133 14.3331Z" fill="#5142FC"/>
<path d="M3.13295 0.00947145C2.97955 -0.0183801 2.82127 0.0159949 2.69326 0.105057C2.56529 0.194159 2.47807 0.330604 2.451 0.484198L1.82959 4.00842L13.6528 1.92365L3.13295 0.00947145Z" fill="#5142FC"/>
<path d="M19.9912 16.8704L17.5493 3.02157C17.4931 2.7029 17.1893 2.49024 16.8705 2.5463L3.02166 4.98821C2.70299 5.04438 2.49017 5.34829 2.54635 5.66696L4.98826 19.5158C5.01525 19.6689 5.10193 19.8049 5.22923 19.8941C5.32841 19.9635 5.44587 20 5.56533 20C5.59919 20 5.63326 19.9971 5.66704 19.9911L19.5159 17.5492C19.6689 17.5223 19.805 17.4356 19.8941 17.3083C19.9833 17.181 20.0182 17.0235 19.9912 16.8704ZM5.66845 9.8763C5.61228 9.55763 5.82509 9.25372 6.14376 9.19755L15.3764 7.56958C15.6953 7.51341 15.999 7.72618 16.0552 8.04485C16.1113 8.36352 15.8985 8.66743 15.5798 8.7236L6.34724 10.3516C6.31282 10.3577 6.27857 10.3606 6.24482 10.3606C5.96579 10.3606 5.71857 10.1606 5.66845 9.8763ZM13.3163 13.8826L7.16122 14.9679C7.12681 14.974 7.09255 14.9769 7.0588 14.9769C6.77978 14.9769 6.53255 14.7769 6.48243 14.4926C6.42626 14.1739 6.63907 13.87 6.95775 13.8138L13.1128 12.7285C13.4317 12.6723 13.7354 12.8851 13.7916 13.2038C13.8477 13.5225 13.6349 13.8264 13.3163 13.8826ZM15.9868 11.0318L6.75419 12.6597C6.71978 12.6658 6.68552 12.6687 6.65177 12.6687C6.37275 12.6687 6.12552 12.4687 6.0754 12.1844C6.01923 11.8658 6.23204 11.5618 6.55071 11.5057L15.7833 9.8777C16.1022 9.82153 16.4059 10.0343 16.4621 10.353C16.5183 10.6717 16.3055 10.9756 15.9868 11.0318Z" fill="#5142FC"/>
</g>
<defs>
<clipPath id="clip0_84_187">
<rect width="20" height="20" fill="white"/>
</clipPath>
</defs>
</svg>
