<svg width="21" height="21" viewBox="0 0 21 21" fill="none" xmlns="http://www.w3.org/2000/svg">
<path d="M0.00195312 10.0631C0.00311667 15.0128 3.58036 19.2272 8.43895 20.0029V12.9709H5.90195V10.0631H8.44195V7.84957C8.32841 6.80069 8.68447 5.75534 9.41359 4.99704C10.1427 4.23874 11.1693 3.84608 12.215 3.92556C12.9655 3.93775 13.7141 4.00501 14.455 4.12679V6.60093H13.191C12.7558 6.54358 12.3183 6.68818 12.0017 6.994C11.6851 7.29981 11.5237 7.73374 11.563 8.17355V10.0631H14.334L13.891 12.9719H11.563V20.0029C16.8174 19.1674 20.502 14.3391 19.9475 9.01578C19.3929 3.6925 14.7932 -0.262137 9.48078 0.0168194C4.16831 0.295776 0.0027976 4.71067 0.00195312 10.0631Z" fill="white"/>
</svg>
