<svg width="20" height="20" viewBox="0 0 20 20" fill="none" xmlns="http://www.w3.org/2000/svg">
<mask id="mask0_504_1781" style="mask-type:luminance" maskUnits="userSpaceOnUse" x="1" y="1" width="18" height="17">
<path fill-rule="evenodd" clip-rule="evenodd" d="M1.66699 1.6665H17.6862V17.332H1.66699V1.6665Z" fill="white" stroke="white"/>
</mask>
<g mask="url(#mask0_504_1781)">
<path fill-rule="evenodd" clip-rule="evenodd" d="M9.67711 2.87297C5.9406 2.87297 2.90072 5.84489 2.90072 9.49887C2.90072 13.1529 5.9406 16.1256 9.67711 16.1256C13.4128 16.1256 16.4527 13.1529 16.4527 9.49887C16.4527 5.84489 13.4128 2.87297 9.67711 2.87297ZM9.67709 17.332C5.26039 17.332 1.66699 13.818 1.66699 9.49887C1.66699 5.17973 5.26039 1.6665 9.67709 1.6665C14.0938 1.6665 17.6864 5.17973 17.6864 9.49887C17.6864 13.818 14.0938 17.332 9.67709 17.332Z" fill="white"/>
<path d="M9.67711 2.37297C5.67512 2.37297 2.40072 5.5582 2.40072 9.49887H3.40072C3.40072 6.13158 6.20607 3.37297 9.67711 3.37297V2.37297ZM2.40072 9.49887C2.40072 13.4395 5.67504 16.6256 9.67711 16.6256V15.6256C6.20615 15.6256 3.40072 12.8662 3.40072 9.49887H2.40072ZM9.67711 16.6256C13.6784 16.6256 16.9527 13.4394 16.9527 9.49887H15.9527C15.9527 12.8663 13.1472 15.6256 9.67711 15.6256V16.6256ZM16.9527 9.49887C16.9527 5.55824 13.6783 2.37297 9.67711 2.37297V3.37297C13.1473 3.37297 15.9527 6.13155 15.9527 9.49887H16.9527ZM9.67709 16.832C5.52595 16.832 2.16699 13.5314 2.16699 9.49887H1.16699C1.16699 14.1046 4.99484 17.832 9.67709 17.832V16.832ZM2.16699 9.49887C2.16699 5.46641 5.52588 2.1665 9.67709 2.1665V1.1665C4.9949 1.1665 1.16699 4.89305 1.16699 9.49887H2.16699ZM9.67709 2.1665C13.8282 2.1665 17.1864 5.46634 17.1864 9.49887H18.1864C18.1864 4.89312 14.3593 1.1665 9.67709 1.1665V2.1665ZM17.1864 9.49887C17.1864 13.5315 13.8282 16.832 9.67709 16.832V17.832C14.3594 17.832 18.1864 14.1046 18.1864 9.49887H17.1864Z" fill="white"/>
</g>
<mask id="mask1_504_1781" style="mask-type:luminance" maskUnits="userSpaceOnUse" x="13" y="13" width="6" height="6">
<path fill-rule="evenodd" clip-rule="evenodd" d="M14.2012 14.2998H18.3333V18.3332H14.2012V14.2998Z" fill="white" stroke="white"/>
</mask>
<g mask="url(#mask1_504_1781)">
<path fill-rule="evenodd" clip-rule="evenodd" d="M17.7166 18.3332C17.5596 18.3332 17.4016 18.2745 17.2807 18.1571L14.3823 15.3307C14.1413 15.0951 14.1405 14.713 14.3815 14.4774C14.6217 14.2401 15.0123 14.2417 15.2541 14.4757L18.1526 17.3029C18.3935 17.5386 18.3944 17.9198 18.1534 18.1555C18.0333 18.2745 17.8746 18.3332 17.7166 18.3332Z" fill="white"/>
<path d="M17.7166 18.3332C17.5595 18.3332 17.4016 18.2745 17.2807 18.1571L14.3823 15.3307C14.1413 15.0951 14.1405 14.713 14.3815 14.4774C14.6217 14.2401 15.0123 14.2417 15.2541 14.4757L18.1526 17.3029C18.3935 17.5386 18.3944 17.9198 18.1534 18.1555C18.0333 18.2745 17.8746 18.3332 17.7166 18.3332" stroke="white"/>
</g>
</svg>
